# xmcd
#
# Track frame offsets: 
#        183
#        17540
#        33930
#        53640
#        68933
#        83923
#        102423
#        122418
#        142498
#        157810
#
# Disc length: 2338 seconds
#
# Revision: 20
# Processed by: cddbd v1.5.2PL0 Copyright (c) Steve Scherf et al.
# Submitted via: ExactAudioCopy v1.3
#
DISCID=7d09200a
DTITLE=Modern Talking - The 2nd Album (Let's Talk About Love)
DYEAR=1985
DGENRE=Euro Disco
TTITLE0=Cheri Cheri Lady
TTITLE1=With A Little Love
TTITLE2=WIld Wild Water
TTITLE3=You're The Lady Of My Heart
TTITLE4=Just Like An Angel
TTITLE5=Heaven Will Know
TTITLE6=Love Don't Live Here Anymore
TTITLE7=Why Did You Do It Just Tonight
TTITLE8=Don't Give Up
TTITLE9=Let's Talk About Love
EXTD=
EXTT0=
EXTT1=
EXTT2=
EXTT3=
EXTT4=
EXTT5=
EXTT6=
EXTT7=
EXTT8=
EXTT9=
PLAYORDER=
